<svg width="48" height="48" viewBox="0 0 48 48" fill="none" xmlns="http://www.w3.org/2000/svg">
<g clip-path="url(#clip0_1611_714)">
<circle cx="24" cy="24" r="24" fill="url(#paint0_linear_1611_714)"/>
<path d="M24.0003 10.0135C18.266 10.0135 12.8206 9.50379 10.7407 14.8375C9.88156 17.0405 10.0063 19.9015 10.0063 23.998C10.0063 27.5928 9.89103 30.9714 10.7407 33.1569C12.8159 38.4938 18.3055 37.9826 23.9972 37.9826C29.4884 37.9826 35.1501 38.5538 37.2553 33.1569C38.116 30.9319 37.9896 28.1135 37.9896 23.998C37.9896 18.5349 38.2913 15.008 35.6397 12.36C32.9549 9.67737 29.3241 10.0135 23.994 10.0135H24.0003ZM22.7464 12.5336C29.61 12.5226 35.0822 11.5757 35.3901 18.3455C35.5038 20.853 35.5038 27.1367 35.3901 29.6442C35.0917 36.1726 30.1169 35.4561 24.0019 35.4561C18.6134 35.4561 15.9413 35.6471 14.1409 33.8465C12.3137 32.0208 12.5316 29.4107 12.5316 23.9917C12.5316 17.5675 11.9236 12.9045 18.3481 12.6094C19.6384 12.551 20.139 12.5336 22.7464 12.5305V12.5336ZM31.4704 14.8549C30.5433 14.8549 29.7916 15.606 29.7916 16.5324C29.7916 17.4587 30.5433 18.2098 31.4704 18.2098C32.3974 18.2098 33.1491 17.4587 33.1491 16.5324C33.1491 15.606 32.3974 14.8549 31.4704 14.8549ZM24.0003 16.8164C20.0316 16.8164 16.8146 20.0324 16.8146 23.998C16.8146 27.9636 20.0316 31.1781 24.0003 31.1781C27.9691 31.1781 31.1845 27.9636 31.1845 23.998C31.1845 20.0324 27.9691 16.8164 24.0003 16.8164ZM24.0003 19.3365C26.5762 19.3365 28.664 21.4243 28.664 23.998C28.664 26.5718 26.5762 28.6595 24.0003 28.6595C21.4245 28.6595 19.3367 26.5718 19.3367 23.998C19.3367 21.4227 21.4245 19.3365 24.0003 19.3365Z" fill="white"/>
</g>
<defs>
<linearGradient id="paint0_linear_1611_714" x1="3.18991" y1="44.8705" x2="47.6582" y2="6.35489" gradientUnits="userSpaceOnUse">
<stop stop-color="#FFDD55"/>
<stop offset="0.5" stop-color="#FF543E"/>
<stop offset="1" stop-color="#C837AB"/>
</linearGradient>
<clipPath id="clip0_1611_714">
<rect width="48" height="48" fill="white"/>
</clipPath>
</defs>
</svg>
