<svg width="48" height="48" viewBox="0 0 48 48" fill="none" xmlns="http://www.w3.org/2000/svg">
<g clip-path="url(#clip0_1611_711)">
<circle cx="24" cy="24" r="24" fill="#FF0302"/>
<path d="M40.2911 15.7857C40.0994 15.0644 39.7216 14.4061 39.1956 13.8766C38.6695 13.3472 38.0137 12.9652 37.2936 12.7689C34.6429 12.0562 24.0476 12.0562 24.0476 12.0562C24.0476 12.0562 13.4524 12.0562 10.8016 12.7689C10.0816 12.9652 9.42569 13.3472 8.89964 13.8766C8.37359 14.4061 7.99582 15.0644 7.80413 15.7857C7.09521 18.448 7.09521 23.9999 7.09521 23.9999C7.09521 23.9999 7.09521 29.5518 7.80413 32.2141C7.99582 32.9354 8.37359 33.5937 8.89964 34.1231C9.42569 34.6526 10.0816 35.0345 10.8016 35.2308C13.4524 35.9436 24.0476 35.9436 24.0476 35.9436C24.0476 35.9436 34.6429 35.9436 37.2936 35.2308C38.0137 35.0345 38.6695 34.6526 39.1956 34.1231C39.7216 33.5937 40.0994 32.9354 40.2911 32.2141C41 29.5518 41 23.9999 41 23.9999C41 23.9999 41 18.448 40.2911 15.7857Z" fill="white"/>
<path d="M20.5803 29.0413V18.9585L29.4418 23.9999L20.5803 29.0413Z" fill="#FF0302"/>
</g>
<defs>
<clipPath id="clip0_1611_711">
<rect width="48" height="48" fill="white"/>
</clipPath>
</defs>
</svg>
